{
  "accessors": [
    {
      "bufferView": 2,
      "componentType": 5126,
      "count": 3044,
      "max": [
        10.860783576965332,
        1.8029842376708984,
        41.93540954589844
      ],
      "min": [
        -10.860832214355469,
        -1.1920928955078125e-07,
        -33.8801383972168
      ],
      "type": "VEC3"
    },
    {
      "bufferView": 2,
      "byteOffset": 36528,
      "componentType": 5126,
      "count": 3044,
      "max": [
        1.0,
        1.0,
        1.0
      ],
      "min": [
        -1.0,
        -1.0,
        -1.0
      ],
      "type": "VEC3"
    },
    {
      "bufferView": 3,
      "componentType": 5126,
      "count": 3044,
      "max": [
        1.0,
        1.0004484920500545e-06,
        1.0,
        1.0
      ],
      "min": [
        -1.0,
        -6.85449833781604e-07,
        -1.0,
        1.0
      ],
      "type": "VEC4"
    },
    {
      "bufferView": 1,
      "componentType": 5126,
      "count": 3044,
      "max": [
        2.517284393310547,
        -1.0192384719848633
      ],
      "min": [
        -2.517277717590332,
        -3.9142754077911377
      ],
      "type": "VEC2"
    },
    {
      "bufferView": 1,
      "byteOffset": 24352,
      "componentType": 5126,
      "count": 3044,
      "max": [
        2.517284393310547,
        -1.0192384719848633
      ],
      "min": [
        -2.517277717590332,
        -3.9142754077911377
      ],
      "type": "VEC2"
    },
    {
      "bufferView": 0,
      "componentType": 5125,
      "count": 4632,
      "type": "SCALAR"
    },
    {
      "bufferView": 2,
      "byteOffset": 73056,
      "componentType": 5126,
      "count": 9654,
      "max": [
        11.220694541931152,
        1.8029842376708984,
        44.20360565185547
      ],
      "min": [
        -11.345232963562012,
        -7.809001445480135e-09,
        -36.16707992553711
      ],
      "type": "VEC3"
    },
    {
      "bufferView": 2,
      "byteOffset": 188904,
      "componentType": 5126,
      "count": 9654,
      "max": [
        1.0,
        1.0,
        1.0
      ],
      "min": [
        -1.0,
        -1.0,
        -1.0
      ],
      "type": "VEC3"
    },
    {
      "bufferView": 3,
      "byteOffset": 48704,
      "componentType": 5126,
      "count": 9654,
      "max": [
        1.0,
        0.8261248469352722,
        1.0,
        1.0
      ],
      "min": [
        -1.0,
        -0.8261224627494812,
        -1.0,
        1.0
      ],
      "type": "VEC4"
    },
    {
      "bufferView": 1,
      "byteOffset": 48704,
      "componentType": 5126,
      "count": 9654,
      "max": [
        2.803027391433716,
        -0.7333707809448242
      ],
      "min": [
        -2.803020715713501,
        -3.871194362640381
      ],
      "type": "VEC2"
    },
    {
      "bufferView": 1,
      "byteOffset": 125936,
      "componentType": 5126,
      "count": 9654,
      "max": [
        2.803027391433716,
        -0.7333707809448242
      ],
      "min": [
        -2.803020715713501,
        -3.871194362640381
      ],
      "type": "VEC2"
    },
    {
      "bufferView": 0,
      "byteOffset": 18528,
      "componentType": 5125,
      "count": 22032,
      "type": "SCALAR"
    },
    {
      "bufferView": 2,
      "byteOffset": 304752,
      "componentType": 5126,
      "count": 2651,
      "max": [
        12.334928512573242,
        6.000000476837158,
        55.3717041015625
      ],
      "min": [
        -12.33497428894043,
        -2.384185791015625e-07,
        -47.28825378417969
      ],
      "type": "VEC3"
    },
    {
      "bufferView": 2,
      "byteOffset": 336564,
      "componentType": 5126,
      "count": 2651,
      "max": [
        1.0,
        1.0,
        1.0
      ],
      "min": [
        -1.0,
        -1.0,
        -1.0
      ],
      "type": "VEC3"
    },
    {
      "bufferView": 3,
      "byteOffset": 203168,
      "componentType": 5126,
      "count": 2651,
      "max": [
        1.0,
        1.0,
        1.0,
        1.0
      ],
      "min": [
        -1.0,
        -1.0,
        -1.0,
        1.0
      ],
      "type": "VEC4"
    },
    {
      "bufferView": 1,
      "byteOffset": 203168,
      "componentType": 5126,
      "count": 2651,
      "max": [
        6.92146635055542,
        2.374512195587158
      ],
      "min": [
        -6.921458721160889,
        -10.457983016967773
      ],
      "type": "VEC2"
    },
    {
      "bufferView": 1,
      "byteOffset": 224376,
      "componentType": 5126,
      "count": 2651,
      "max": [
        6.92146635055542,
        2.374512195587158
      ],
      "min": [
        -6.921458721160889,
        -10.457983016967773
      ],
      "type": "VEC2"
    },
    {
      "bufferView": 0,
      "byteOffset": 106656,
      "componentType": 5125,
      "count": 4638,
      "type": "SCALAR"
    },
    {
      "bufferView": 2,
      "byteOffset": 368376,
      "componentType": 5126,
      "count": 56,
      "max": [
        12.984164237976074,
        10.0,
        56.5842399597168
      ],
      "min": [
        -12.984159469604492,
        6.0,
        -48.50076675415039
      ],
      "type": "VEC3"
    },
    {
      "bufferView": 2,
      "byteOffset": 369048,
      "componentType": 5126,
      "count": 56,
      "max": [
        0.6787266731262207,
        0.9766592383384705,
        0.4435078203678131
      ],
      "min": [
        -0.6787273287773132,
        0.7343904376029968,
        -0.44350773096084595
      ],
      "type": "VEC3"
    },
    {
      "bufferView": 3,
      "byteOffset": 245584,
      "componentType": 5126,
      "count": 56,
      "max": [
        1.0,
        3.872379181757424e-07,
        1.0,
        1.0
      ],
      "min": [
        -1.0,
        -3.9872202250990085e-07,
        -1.0,
        1.0
      ],
      "type": "VEC4"
    },
    {
      "bufferView": 1,
      "byteOffset": 245584,
      "componentType": 5126,
      "count": 56,
      "max": [
        7.902799606323242,
        2.526076316833496
      ],
      "min": [
        -7.027792930603027,
        -10.609549522399902
      ],
      "type": "VEC2"
    },
    {
      "bufferView": 1,
      "byteOffset": 246032,
      "componentType": 5126,
      "count": 56,
      "max": [
        7.902799606323242,
        2.526076316833496
      ],
      "min": [
        -7.027792930603027,
        -10.609549522399902
      ],
      "type": "VEC2"
    },
    {
      "bufferView": 0,
      "byteOffset": 125208,
      "componentType": 5125,
      "count": 84,
      "type": "SCALAR"
    },
    {
      "bufferView": 2,
      "byteOffset": 369720,
      "componentType": 5126,
      "count": 22452,
      "max": [
        5.140190601348877,
        5.342906475067139,
        41.96324920654297
      ],
      "min": [
        -5.140170574188232,
        -2.1999998092651367,
        -31.83989906311035
      ],
      "type": "VEC3"
    },
    {
      "bufferView": 2,
      "byteOffset": 639144,
      "componentType": 5126,
      "count": 22452,
      "max": [
        1.0,
        1.0,
        1.0
      ],
      "min": [
        -1.0,
        -1.0,
        -1.0
      ],
      "type": "VEC3"
    },
    {
      "bufferView": 3,
      "byteOffset": 246480,
      "componentType": 5126,
      "count": 22452,
      "max": [
        1.0,
        0.9973857402801514,
        1.0,
        1.0
      ],
      "min": [
        -1.0,
        -0.997384786605835,
        -1.0,
        -1.0
      ],
      "type": "VEC4"
    },
    {
      "bufferView": 1,
      "byteOffset": 246480,
      "componentType": 5126,
      "count": 22452,
      "max": [
        5.24176549911499,
        0.9723188877105713
      ],
      "min": [
        -5.241758823394775,
        -8.779550552368164
      ],
      "type": "VEC2"
    },
    {
      "bufferView": 1,
      "byteOffset": 426096,
      "componentType": 5126,
      "count": 22452,
      "max": [
        5.24176549911499,
        0.9723188877105713
      ],
      "min": [
        -5.241758823394775,
        -8.779550552368164
      ],
      "type": "VEC2"
    },
    {
      "bufferView": 0,
      "byteOffset": 125544,
      "componentType": 5125,
      "count": 59520,
      "type": "SCALAR"
    }
  ],
  "asset": {
    "extras": {
      "author": "lexferreira89 (https://sketchfab.com/lexferreira89)",
      "license": "CC-BY-4.0 (http://creativecommons.org/licenses/by/4.0/)",
      "source": "https://sketchfab.com/3d-models/low-poly-ancient-roman-villa-475fbafbed4843fa8bd003c65ef2cccc",
      "title": "Low Poly Ancient Roman Villa"
    },
    "generator": "Sketchfab-12.67.0",
    "version": "2.0"
  },
  "bufferViews": [
    {
      "buffer": 0,
      "byteLength": 363624,
      "name": "floatBufferViews",
      "target": 34963
    },
    {
      "buffer": 0,
      "byteLength": 605712,
      "byteOffset": 363624,
      "byteStride": 8,
      "name": "floatBufferViews",
      "target": 34962
    },
    {
      "buffer": 0,
      "byteLength": 908568,
      "byteOffset": 969336,
      "byteStride": 12,
      "name": "floatBufferViews",
      "target": 34962
    },
    {
      "buffer": 0,
      "byteLength": 605712,
      "byteOffset": 1877904,
      "byteStride": 16,
      "name": "floatBufferViews",
      "target": 34962
    }
  ],
  "buffers": [
    {
      "byteLength": 2483616,
      "uri": "scene.bin"
    }
  ],
  "images": [
    {
      "uri": "textures/madeira_baseColor.jpeg"
    },
    {
      "uri": "textures/madeira_normal.jpeg"
    },
    {
      "uri": "textures/tecido_baseColor.jpeg"
    },
    {
      "uri": "textures/tecido_normal.jpeg"
    },
    {
      "uri": "textures/material_baseColor.jpeg"
    },
    {
      "uri": "textures/material_normal.jpeg"
    },
    {
      "uri": "textures/telhado_baseColor.jpeg"
    },
    {
      "uri": "textures/telhado_normal.jpeg"
    },
    {
      "uri": "textures/pedra_baseColor.jpeg"
    },
    {
      "uri": "textures/pedra_normal.jpeg"
    }
  ],
  "materials": [
    {
      "doubleSided": true,
      "name": "madeira",
      "normalTexture": {
        "index": 1
      },
      "pbrMetallicRoughness": {
        "baseColorTexture": {
          "index": 0
        },
        "metallicFactor": 0.0,
        "roughnessFactor": 0.5
      }
    },
    {
      "doubleSided": true,
      "name": "tecido",
      "normalTexture": {
        "index": 3
      },
      "pbrMetallicRoughness": {
        "baseColorTexture": {
          "index": 2
        },
        "metallicFactor": 0.0,
        "roughnessFactor": 0.5
      }
    },
    {
      "doubleSided": true,
      "name": "material",
      "normalTexture": {
        "index": 5,
        "texCoord": 1
      },
      "pbrMetallicRoughness": {
        "baseColorTexture": {
          "index": 4
        },
        "metallicFactor": 0.0,
        "roughnessFactor": 0.5
      }
    },
    {
      "doubleSided": true,
      "name": "telhado",
      "normalTexture": {
        "index": 7
      },
      "pbrMetallicRoughness": {
        "baseColorTexture": {
          "index": 6
        },
        "metallicFactor": 0.0,
        "roughnessFactor": 0.5
      }
    },
    {
      "doubleSided": true,
      "name": "pedra",
      "normalTexture": {
        "index": 9
      },
      "pbrMetallicRoughness": {
        "baseColorTexture": {
          "index": 8
        },
        "metallicFactor": 0.0,
        "roughnessFactor": 0.5
      }
    }
  ],
  "meshes": [
    {
      "name": "Object_0",
      "primitives": [
        {
          "attributes": {
            "NORMAL": 1,
            "POSITION": 0,
            "TANGENT": 2,
            "TEXCOORD_0": 3,
            "TEXCOORD_1": 4
          },
          "indices": 5,
          "material": 0,
          "mode": 4
        }
      ]
    },
    {
      "name": "Object_1",
      "primitives": [
        {
          "attributes": {
            "NORMAL": 7,
            "POSITION": 6,
            "TANGENT": 8,
            "TEXCOORD_0": 9,
            "TEXCOORD_1": 10
          },
          "indices": 11,
          "material": 1,
          "mode": 4
        }
      ]
    },
    {
      "name": "Object_2",
      "primitives": [
        {
          "attributes": {
            "NORMAL": 13,
            "POSITION": 12,
            "TANGENT": 14,
            "TEXCOORD_0": 15,
            "TEXCOORD_1": 16
          },
          "indices": 17,
          "material": 2,
          "mode": 4
        }
      ]
    },
    {
      "name": "Object_3",
      "primitives": [
        {
          "attributes": {
            "NORMAL": 19,
            "POSITION": 18,
            "TANGENT": 20,
            "TEXCOORD_0": 21,
            "TEXCOORD_1": 22
          },
          "indices": 23,
          "material": 3,
          "mode": 4
        }
      ]
    },
    {
      "name": "Object_4",
      "primitives": [
        {
          "attributes": {
            "NORMAL": 25,
            "POSITION": 24,
            "TANGENT": 26,
            "TEXCOORD_0": 27,
            "TEXCOORD_1": 28
          },
          "indices": 29,
          "material": 4,
          "mode": 4
        }
      ]
    }
  ],
  "nodes": [
    {
      "children": [
        1
      ],
      "matrix": [
        1.0,
        0.0,
        0.0,
        0.0,
        0.0,
        2.220446049250313e-16,
        -1.0,
        0.0,
        0.0,
        1.0,
        2.220446049250313e-16,
        0.0,
        0.0,
        0.0,
        0.0,
        1.0
      ],
      "name": "Sketchfab_model"
    },
    {
      "children": [
        2
      ],
      "name": "root"
    },
    {
      "children": [
        3
      ],
      "matrix": [
        1.0,
        0.0,
        0.0,
        0.0,
        0.0,
        2.220446049250313e-16,
        1.0,
        0.0,
        0.0,
        -1.0,
        2.220446049250313e-16,
        0.0,
        0.0,
        0.0,
        0.0,
        1.0
      ],
      "name": "GLTF_SceneRootNode"
    },
    {
      "children": [
        4,
        5,
        6,
        7,
        8
      ],
      "matrix": [
        -1.5580909498345548e-07,
        0.0,
        0.23105092346662987,
        0.0,
        -0.0,
        0.25,
        0.0,
        0.0,
        -0.12370940297839211,
        -0.0,
        -8.342338489632012e-08,
        0.0,
        0.0,
        0.0,
        0.0,
        1.0
      ],
      "name": "Cube.073_0"
    },
    {
      "mesh": 0,
      "name": "Object_4"
    },
    {
      "mesh": 1,
      "name": "Object_5"
    },
    {
      "mesh": 2,
      "name": "Object_6"
    },
    {
      "mesh": 3,
      "name": "Object_7"
    },
    {
      "mesh": 4,
      "name": "Object_8"
    }
  ],
  "samplers": [
    {
      "magFilter": 9729,
      "minFilter": 9987,
      "wrapS": 10497,
      "wrapT": 10497
    }
  ],
  "scene": 0,
  "scenes": [
    {
      "name": "Sketchfab_Scene",
      "nodes": [
        0
      ]
    }
  ],
  "textures": [
    {
      "sampler": 0,
      "source": 0
    },
    {
      "sampler": 0,
      "source": 1
    },
    {
      "sampler": 0,
      "source": 2
    },
    {
      "sampler": 0,
      "source": 3
    },
    {
      "sampler": 0,
      "source": 4
    },
    {
      "sampler": 0,
      "source": 5
    },
    {
      "sampler": 0,
      "source": 6
    },
    {
      "sampler": 0,
      "source": 7
    },
    {
      "sampler": 0,
      "source": 8
    },
    {
      "sampler": 0,
      "source": 9
    }
  ]
}
